<svg xmlns="http://www.w3.org/2000/svg" viewBox="0 0 640 800" role="img" aria-labelledby="title desc">
  <title id="title">Celia Ng portrait illustration</title>
  <desc id="desc">Editorial portrait illustration for a senior stylist.</desc>
  <rect width="640" height="800" fill="#191613"/>
  <path d="M132 148c70-80 222-98 321-35 111 72 135 236 83 377-42 116-126 181-226 181-111 0-198-73-229-189-34-127-17-257 51-334Z" fill="#2b2420"/>
  <path d="M196 217c42-70 140-91 209-43 58 41 82 115 58 188-27 83-91 136-166 129-81-7-139-75-139-168 0-39 12-75 38-106Z" fill="#d4aa78"/>
  <path d="M156 272c27-119 120-190 229-163 80 20 132 77 150 159-86 2-169-27-248-88-33 49-77 79-131 92Z" fill="#3e2c26"/>
  <path d="M116 618c45-84 114-128 206-128 90 0 160 44 205 128v182H116V618Z" fill="#e7d8c7"/>
  <path d="M212 608c33 39 69 59 109 59 42 0 79-20 110-59" fill="none" stroke="#9d7a3e" stroke-width="12" stroke-linecap="round"/>
</svg>
